<svg width="41" height="34" viewBox="0 0 41 34" fill="none" xmlns="http://www.w3.org/2000/svg">
<path fill-rule="evenodd" clip-rule="evenodd" d="M40.0299 3.91886C38.5591 4.58356 36.9755 5.03307 35.3143 5.23391C37.0107 4.201 38.3124 2.56316 38.9256 0.612103C37.3373 1.5685 35.5822 2.26428 33.7072 2.63727C32.2129 1.01378 30.0771 0 27.7134 0C23.181 0 19.5039 3.74192 19.5039 8.35655C19.5039 9.01169 19.5744 9.64771 19.7154 10.2598C12.8898 9.91072 6.83965 6.58721 2.78661 1.52546C2.07938 2.764 1.67524 4.201 1.67524 5.73124C1.67524 8.62914 3.12496 11.1875 5.32887 12.6867C3.9849 12.646 2.71612 12.2659 1.60711 11.6442V11.747C1.60711 15.7974 4.43837 19.1758 8.19771 19.941C7.50928 20.137 6.78326 20.2351 6.03374 20.2351C5.50508 20.2351 4.98817 20.1849 4.48771 20.0868C5.53328 23.4055 8.56423 25.8228 12.1591 25.8874C9.349 28.1302 5.80582 29.4667 1.95955 29.4667C1.29697 29.4667 0.641437 29.4285 0 29.352C3.63481 31.7191 7.95335 33.1034 12.5891 33.1034C27.6969 33.1034 35.9557 20.3713 35.9557 9.3273C35.9557 8.96387 35.9487 8.60044 35.9346 8.24418C37.5393 7.06541 38.9327 5.59495 40.0299 3.91886Z" fill="#E53888"/>
</svg>
